<?xml version="1.0" encoding="UTF-8" standalone="no"?>
<!-- Created with Inkscape (http://www.inkscape.org/) -->

<svg
   xmlns:dc="http://purl.org/dc/elements/1.1/"
   xmlns:cc="http://creativecommons.org/ns#"
   xmlns:rdf="http://www.w3.org/1999/02/22-rdf-syntax-ns#"
   xmlns:svg="http://www.w3.org/2000/svg"
   xmlns="http://www.w3.org/2000/svg"
   xmlns:sodipodi="http://sodipodi.sourceforge.net/DTD/sodipodi-0.dtd"
   xmlns:inkscape="http://www.inkscape.org/namespaces/inkscape"
   id="svg2"
   version="1.1"
   inkscape:version="0.91 r13725"
   xml:space="preserve"
   width="298.599"
   height="195.45753"
   viewBox="0 0 298.599 195.45754"
   sodipodi:docname="patsys-logo.svg"
   inkscape:export-filename="/home/atomiq/Desktop/Freelance Business/PatsysBackstreetBarbershop/patsys-logo.png"
   inkscape:export-xdpi="90"
   inkscape:export-ydpi="90"><metadata
     id="metadata8"><rdf:RDF><cc:Work
         rdf:about=""><dc:format>image/svg+xml</dc:format><dc:type
           rdf:resource="http://purl.org/dc/dcmitype/StillImage" /><dc:title></dc:title></cc:Work></rdf:RDF></metadata><defs
     id="defs6"><clipPath
       clipPathUnits="userSpaceOnUse"
       id="clipPath20"><path
         d="M 0,800 800,800 800,0 0,0 0,800 Z"
         id="path22"
         inkscape:connector-curvature="0" /></clipPath></defs><sodipodi:namedview
     pagecolor="#ffffff"
     bordercolor="#666666"
     borderopacity="1"
     objecttolerance="10"
     gridtolerance="10"
     guidetolerance="10"
     inkscape:pageopacity="0"
     inkscape:pageshadow="2"
     inkscape:window-width="1360"
     inkscape:window-height="715"
     id="namedview4"
     showgrid="false"
     inkscape:zoom="1.888"
     inkscape:cx="124.82152"
     inkscape:cy="107.58459"
     inkscape:window-x="0"
     inkscape:window-y="0"
     inkscape:window-maximized="1"
     inkscape:current-layer="g10"
     fit-margin-top="0"
     fit-margin-left="0"
     fit-margin-right="0"
     fit-margin-bottom="0" /><g
     id="g10"
     inkscape:groupmode="layer"
     inkscape:label="1119"
     transform="matrix(1.25,0,0,-1.25,-250.52966,663.64563)"><g
       id="g24"
       transform="translate(289.37883,389.4395)"
       style="fill:#ececec" /><g
       id="g114"
       transform="matrix(0.597198,0,0,0.597198,353.33323,491.76157)"
       style="fill:#ececec"><path
         d="m 0,0 c -2.548,4.809 -3.175,10.566 -1.735,16.294 2.488,10.025 10.774,17.245 19.768,17.172 1.155,-0.017 2.305,-0.139 3.466,-0.39 4.69,-1.087 8.625,-4.22 11.048,-8.8 2.571,-4.829 3.204,-10.593 1.791,-16.292 -2.525,-9.992 -10.831,-17.249 -19.77,-17.17 -1.182,-0.011 -2.372,0.15 -3.499,0.422 C 6.361,-7.714 2.416,-4.571 0,0 m 11.58,-16.829 c 0.95,-0.107 1.928,-0.182 2.908,-0.202 12.715,-0.086 24.373,9.64 27.737,23.173 1.923,7.52 1.033,15.212 -2.383,21.679 -3.535,6.637 -9.366,11.209 -16.421,12.836 -1.749,0.408 -3.529,0.616 -5.331,0.624 -9.733,0.093 -18.839,-5.629 -24.087,-14.352 -0.596,0.164 -1.221,0.3 -1.899,0.321 -3.756,-0.016 -6.797,-2.889 -6.845,-6.493 -0.056,-2.816 1.838,-5.208 4.42,-6.174 -0.904,-6.347 0.148,-12.673 3.049,-18.146 1.969,-3.705 4.668,-6.744 7.917,-9.012 l -22.758,-20.973 17.871,0 15.822,16.719 z"
         style="fill:#ececec;fill-opacity:1;fill-rule:nonzero;stroke:none"
         id="path116"
         inkscape:connector-curvature="0" /></g><g
       id="g122"
       transform="matrix(0.597198,0,0,0.597198,291.78684,487.00961)"
       style="fill:#ececec"><path
         d="m 0,0 c -1.151,-0.212 -2.333,-0.337 -3.486,-0.322 -8.964,0.046 -17.155,7.4 -19.493,17.461 -1.308,5.725 -0.609,11.527 1.998,16.274 2.522,4.544 6.508,7.597 11.228,8.615 1.154,0.267 2.305,0.366 3.489,0.377 C 2.668,42.333 10.891,34.949 13.195,24.917 14.566,19.192 13.833,13.416 11.2,8.646 8.68,4.1 4.72,1.018 0,0 m 11.542,-3.087 c 2.757,2.133 5.06,4.858 6.888,8.088 3.505,6.432 4.508,14.082 2.733,21.596 -3.175,13.602 -14.652,23.532 -27.374,23.625 -1.804,0.007 -3.575,-0.185 -5.314,-0.573 -3.956,-0.836 -7.514,-2.607 -10.503,-5.139 -10.072,-3.806 -20.26,4.922 -23.082,5.999 -2.882,1.077 -8.011,-2.983 -7.018,-4.534 0.964,-1.469 20.082,-9.7 20.581,-19.554 -0.432,-3.585 -0.238,-7.303 0.603,-10.959 3.177,-13.604 14.68,-23.506 27.371,-23.626 0.355,0.003 0.709,0.063 1.064,0.068 l 16.514,-17.495 18.493,0 -20.956,22.504 z"
         style="fill:#ececec;fill-opacity:1;fill-rule:nonzero;stroke:none"
         id="path124"
         inkscape:connector-curvature="0" /></g><path
       d="m 439.30293,470.02888 -238.8792,0 0,1.82564 238.8792,0 0,-1.82564 z"
       style="fill:#ececec;fill-opacity:1;fill-rule:nonzero;stroke:none"
       id="path126"
       inkscape:connector-curvature="0" /><g
       id="g4171"
       style="fill:#ececec"><g
         style="fill:#ececec"
         transform="matrix(0.597198,0,0,0.597198,295.85,378.73803)"
         id="g110"><path
           inkscape:connector-curvature="0"
           id="path112"
           style="fill:#ececec;fill-opacity:1;fill-rule:nonzero;stroke:none"
           d="m 0,0 -0.011,-7.012 38.04,73.491 -15.25,0 L 0,0 Z" /></g><g
         style="fill:#ececec"
         transform="matrix(0.597198,0,0,0.597198,355.24964,374.96941)"
         id="g118"><path
           inkscape:connector-curvature="0"
           id="path120"
           style="fill:#ececec;fill-opacity:1;fill-rule:nonzero;stroke:none"
           d="m 0,0 -1.419,10.098 -21.597,62.691 -15.743,0 L 0,0 Z" /></g><path
         inkscape:connector-curvature="0"
         id="path128"
         style="fill:#ececec;fill-opacity:1;fill-rule:nonzero;stroke:none"
         d="m 439.30293,417.93709 -238.8792,0 0,1.82564 238.8792,0 0,-1.82564 z" /></g><g
       id="g130"
       transform="matrix(0.597198,0,0,0.597198,325.27689,529.64531)"
       style="fill:#ececec"><path
         d="m 0,0 4.873,-14.999 15.771,0 -12.759,-9.269 4.874,-14.999 -12.759,9.27 -12.759,-9.27 4.874,14.999 -12.759,9.269 15.771,0 L 0,0 Z"
         style="fill:#ececec;fill-opacity:1;fill-rule:nonzero;stroke:none"
         id="path132"
         inkscape:connector-curvature="0" /></g><g
       id="text3460"
       style="font-style:normal;font-variant:normal;font-weight:500;font-stretch:normal;font-size:53.25809097px;line-height:100%;font-family:Asimov;-inkscape-font-specification:'Asimov, Medium';text-align:start;letter-spacing:0px;word-spacing:0px;writing-mode:lr-tb;text-anchor:start;opacity:1;fill:#ececec;fill-opacity:1;stroke:none;stroke-width:1px;stroke-linecap:butt;stroke-linejoin:miter;stroke-opacity:1"
       transform="matrix(0.61676095,0,0,-0.57825557,74.699741,215.0305)"><path
         inkscape:connector-curvature="0"
         id="path3429"
         d="m 283.10712,-407.68525 8.41477,0 c 2.66291,0 5.05952,-0.26629 7.18985,-0.85213 5.69861,-1.54448 9.85274,-5.00626 9.85274,-11.1842 0,-1.75752 -0.42606,-3.46177 -1.17168,-5.00626 -2.34335,-4.68671 -7.88219,-7.50939 -15.87091,-7.50939 l -17.7882,0 0,37.8665 9.37343,0 0,-13.31452 z m 15.97742,-11.98307 c 0,3.83458 -2.92919,5.64536 -7.56265,5.64536 l -8.41477,0 0,-11.87656 8.41477,0 c 4.73997,0 7.56265,2.34336 7.56265,6.2312 z"
         style="fill:#ececec" /><path
         inkscape:connector-curvature="0"
         id="path3431"
         d="m 338.05282,-402.14641 3.14223,7.77568 9.95926,0 -16.98933,-37.8665 -8.68107,0 -16.93607,37.8665 9.95926,0 3.14223,-7.77568 16.40349,0 z m -13.8471,-6.33771 5.64536,-14.16665 5.64536,14.16665 -11.29072,0 z"
         style="fill:#ececec" /><path
         inkscape:connector-curvature="0"
         id="path3433"
         d="m 389.19723,-425.89952 0,-6.33771 -37.01437,0 0,6.33771 13.68733,0 0,31.52879 9.37342,0 0,-31.52879 13.95362,0 z"
         style="fill:#ececec" /><path
         inkscape:connector-curvature="0"
         id="path3435"
         d="m 412.2738,-400.01609 c -5.43232,0 -8.94736,-1.70425 -8.94736,-6.28445 l -9.37342,0 c 0,1.43797 0.26629,2.71616 0.74561,3.88784 2.2901,5.43233 8.84085,8.57455 17.57517,8.57455 2.50313,0 4.79323,-0.26629 6.81704,-0.74561 5.37907,-1.27819 9.69297,-4.20739 9.69297,-9.79949 0,-1.54448 -0.31955,-2.92919 -0.95864,-4.15413 -2.2901,-4.47368 -8.04198,-6.55074 -14.1134,-8.09523 -2.92919,-0.74561 -5.16603,-1.49123 -6.71052,-2.34336 -1.54448,-0.85213 -2.34335,-1.91729 -2.34335,-3.14222 0,-3.19549 3.302,-4.42042 7.2431,-4.42042 4.52693,0 7.56265,1.81077 7.56265,5.48558 l 9.32016,0 c 0,-1.70426 -0.37281,-3.24874 -1.17168,-4.68671 -2.39661,-4.31391 -7.88219,-7.03007 -15.4981,-7.03007 -2.44987,0 -4.73997,0.26629 -6.76378,0.79887 -5.27255,1.33145 -10.01252,4.26065 -10.01252,9.79949 0,1.651 0.42606,3.08897 1.22494,4.3139 2.60964,4.10088 8.20174,6.07143 13.95362,7.61591 1.81077,0.47932 3.302,0.90539 4.47368,1.33145 2.44987,0.90539 4.42042,1.86404 4.42042,4.5802 0,3.14223 -3.19549,4.3139 -7.13659,4.3139 z"
         style="fill:#ececec" /><path
         inkscape:connector-curvature="0"
         id="path3437"
         d="m 454.11219,-415.19464 -9.42668,-17.04259 -10.27881,0 14.91227,24.12591 0,13.74059 9.53319,0 0,-13.74059 14.91227,-24.12591 -10.22555,0 -9.42669,17.04259 z"
         style="fill:#ececec" /><path
         inkscape:connector-curvature="0"
         id="path3439"
         d="m 485.86567,-434.3143 -6.33772,0 0,10.59836 3.88784,3.67481 2.44988,-14.27317 z"
         style="fill:#ececec" /><path
         inkscape:connector-curvature="0"
         id="path3441"
         d="m 509.9483,-400.01609 c -5.43232,0 -8.94736,-1.70425 -8.94736,-6.28445 l -9.37342,0 c 0,1.43797 0.26629,2.71616 0.74561,3.88784 2.2901,5.43233 8.84085,8.57455 17.57517,8.57455 2.50313,0 4.79323,-0.26629 6.81704,-0.74561 5.37907,-1.27819 9.69297,-4.20739 9.69297,-9.79949 0,-1.54448 -0.31955,-2.92919 -0.95864,-4.15413 -2.2901,-4.47368 -8.04198,-6.55074 -14.1134,-8.09523 -2.92919,-0.74561 -5.16603,-1.49123 -6.71052,-2.34336 -1.54448,-0.85213 -2.34335,-1.91729 -2.34335,-3.14222 0,-3.19549 3.302,-4.42042 7.2431,-4.42042 4.52693,0 7.56264,1.81077 7.56264,5.48558 l 9.32017,0 c 0,-1.70426 -0.37281,-3.24874 -1.17168,-4.68671 -2.39661,-4.31391 -7.88219,-7.03007 -15.4981,-7.03007 -2.44987,0 -4.73997,0.26629 -6.76378,0.79887 -5.27255,1.33145 -10.01252,4.26065 -10.01252,9.79949 0,1.651 0.42606,3.08897 1.22494,4.3139 2.60964,4.10088 8.20174,6.07143 13.95362,7.61591 1.81077,0.47932 3.302,0.90539 4.47368,1.33145 2.44987,0.90539 4.42042,1.86404 4.42042,4.5802 0,3.14223 -3.19549,4.3139 -7.13659,4.3139 z"
         style="fill:#ececec" /></g><text
       xml:space="preserve"
       style="font-style:normal;font-weight:normal;font-size:40px;line-height:125%;font-family:sans-serif;letter-spacing:0px;word-spacing:0px;fill:#ececec;fill-opacity:1;stroke:none;stroke-width:1px;stroke-linecap:butt;stroke-linejoin:miter;stroke-opacity:1;"
       x="238.13559"
       y="-355.48267"
       id="text3735"
       sodipodi:linespacing="125%"
       transform="scale(1,-1)"><tspan
         sodipodi:role="line"
         id="tspan3737"
         x="238.13559"
         y="-355.48267" /></text>
<text
       xml:space="preserve"
       style="font-style:normal;font-variant:normal;font-weight:500;font-stretch:normal;font-size:37.28820038px;line-height:125%;font-family:aakar;-inkscape-font-specification:'aakar, Medium';text-align:start;letter-spacing:0px;word-spacing:0px;writing-mode:lr-tb;text-anchor:start;fill:#ececec;fill-opacity:1;stroke:none;stroke-width:1px;stroke-linecap:butt;stroke-linejoin:miter;stroke-opacity:1;"
       x="186.05605"
       y="-479.79446"
       id="text4178"
       sodipodi:linespacing="125%"
       transform="scale(1.1244692,-0.88930848)"><tspan
         sodipodi:role="line"
         id="tspan4180"
         x="186.05605"
         y="-479.79446"
         style="font-style:normal;font-variant:normal;font-weight:500;font-stretch:normal;font-size:14.91499996px;line-height:200%;font-family:aakar;-inkscape-font-specification:'aakar, Medium';text-align:start;writing-mode:lr-tb;text-anchor:start;fill:#ececec;">BACKSTREET BARBERSHOP</tspan></text>
</g></svg>